<svg width="100" height="100" viewBox="0 0 100 100" fill="none" xmlns="http://www.w3.org/2000/svg">
<path fill-rule="evenodd" clip-rule="evenodd" d="M27.9047 12.1782C32.6453 11.5476 37.7031 12.4326 41.8246 14.6098L42.514 14.9907C47.351 17.7854 50.1733 22.0447 51.5844 26.3256C55.4798 21.0639 61.7312 17.6491 68.7846 17.6489H94.474V28.9369H87.6439C89.2592 31.9464 90.1771 35.3882 90.1771 39.0405L90.1703 39.5746C89.9114 50.1219 82.0177 58.7729 71.806 60.2172L69.806 60.4311C65.2093 60.4312 59.9427 62.1725 56.3305 64.6381L55.9867 64.8793C54.2949 66.0922 53.3767 67.2005 52.9808 67.9614L52.9086 68.1088C52.7586 68.4357 52.7464 68.5983 52.7474 68.6606C52.7483 68.7093 52.7577 68.8033 52.8656 68.9965C52.9841 69.2085 53.0609 69.2797 53.0756 69.2924C53.0817 69.2978 53.089 69.3057 53.1381 69.3237L53.3275 69.3735C53.5962 69.4249 54.1139 69.4651 54.9877 69.3442L55.4623 69.269C57.8824 68.8368 60.9788 67.5936 64.8158 65.9076L66.1205 65.3305L68.7523 64.1752C71.4575 63.0089 74.3365 61.8641 76.9613 61.2328L77.7338 61.06C79.5785 60.6787 81.7098 60.4744 83.8461 60.9067L84.349 61.02C86.8497 61.6476 89.1077 63.1457 90.6273 65.645L90.7875 65.9164C92.2946 68.5422 92.6492 71.3809 91.9555 74.0854L91.7963 74.643C91.0057 77.1754 89.4132 79.193 87.8392 80.7123L87.5248 81.0092C84.1919 84.0982 79.6074 86.3843 76.1566 87.7807L74.3021 88.5317L69.9808 77.853L71.8344 77.103C74.8083 75.8996 77.8785 74.2432 79.6937 72.561L79.8764 72.3832L79.6537 72.433C77.8843 72.8586 75.8109 73.6811 73.3461 74.7446L70.7465 75.8832L69.4486 76.4545C65.7459 78.0815 61.2033 80.0293 56.974 80.6957L56.5658 80.7563C54.4569 81.048 52.0387 81.0701 49.6488 80.3032L49.1713 80.1391C46.6422 79.2115 44.5632 77.4975 43.0931 75.103L42.808 74.6157C42.3702 73.8319 42.0302 73.0321 41.7777 72.227C41.5253 71.4219 41.2172 66.4926 41.2172 66.4926C41.2172 66.1029 40.9921 65.6946 40.434 65.4194C39.9291 65.1707 39.3473 65.1437 38.8764 65.3266L38.682 65.4174C35.3512 67.2732 31.3759 68.6175 26.893 68.6996L26.4584 68.7035C16.7976 68.7035 7.17822 63.2172 5.70154 52.061L5.63709 51.5248C4.85893 44.2669 8.28813 38.1453 13.4066 34.3198C12.9227 33.0426 12.553 31.6765 12.391 30.2202L12.35 29.8032C12.0932 26.6963 12.835 23.7248 14.4359 20.8334L14.7162 20.3461C17.6827 15.3953 22.69 12.9783 27.4467 12.2436L27.9047 12.1782Z" fill="#F7F6F1"/>
<path fill-rule="evenodd" clip-rule="evenodd" d="M27.7515 14.2196C32.2062 13.5317 37.0228 14.3349 40.8901 16.3778C47.6078 19.9267 50.314 26.551 50.688 32.0605C53.49 24.7996 60.5357 19.6484 68.7847 19.6484H92.4732V26.9364H83.936C86.5893 30.2536 88.1763 34.4618 88.1763 39.04C88.1761 49.4069 80.04 57.8735 69.8052 58.4042V58.4306C64.6282 58.4307 58.7651 60.4254 54.8208 63.2528C52.8509 64.665 51.6347 66.0878 51.0903 67.2743C50.6148 68.3109 50.6428 69.1195 51.1187 69.9716C51.5385 70.7231 51.9815 71.0297 52.4487 71.2011C53.0164 71.4093 53.9067 71.5125 55.2612 71.3251C58.0706 70.9364 61.5769 69.5146 65.6196 67.7382C66.0498 67.5492 66.4872 67.3552 66.9302 67.1591C70.3686 65.6368 74.1407 63.9673 77.4282 63.1767C79.3107 62.724 81.4177 62.4551 83.4487 62.8661C85.649 63.3114 87.6114 64.5336 88.9185 66.6835C90.3743 69.0783 90.6391 71.638 89.8872 74.0468C89.1885 76.2851 87.7037 78.1154 86.1646 79.5419C83.0947 82.3871 78.7732 84.564 75.4058 85.9267L72.5845 78.956C75.6407 77.7193 78.9741 75.9542 81.0532 74.0273C82.0885 73.0677 82.5528 72.3045 82.7085 71.8056C82.8109 71.4773 82.8365 71.1553 82.4927 70.5898C82.3629 70.3763 82.273 70.3001 81.9575 70.2362C81.4728 70.1382 80.5988 70.1484 79.186 70.4882C76.6115 71.1074 73.5236 72.4705 69.939 74.0527C69.5145 74.24 69.0824 74.4303 68.644 74.623C64.7771 76.3221 60.3135 78.2179 56.2915 78.7743C54.2303 79.0595 51.9888 79.0415 49.8599 78.2607C47.6306 77.443 45.8111 75.8912 44.5532 73.6396C43.8883 72.4493 43.5803 71.4988 43.3228 70.0331C43.0833 68.6705 43.2163 66.9112 43.2163 66.4921C43.2163 63.881 39.9895 62.3991 37.7085 63.6698C34.5093 65.4523 30.7169 66.703 26.4575 66.703C17.3326 66.703 8.71948 61.5125 7.62549 51.3114C6.87283 44.2927 10.5278 38.4172 15.8833 35.04C15.094 33.3593 14.5029 31.568 14.3433 29.6376C14.1236 26.9799 14.7464 24.3999 16.1851 21.8017C18.7294 17.2068 23.2691 14.912 27.7515 14.2196ZM26.4575 39.4696C19.719 39.4697 14.4918 44.8188 15.1021 50.5097C15.671 55.8145 19.9876 59.1825 26.4575 59.1825C31.9148 59.1825 36.4015 57.4102 39.5601 55.5986C41.1346 54.6953 41.9845 53.0827 42.4106 52.1464C42.8368 51.2101 43.1665 49.6069 43.1665 48.1708C43.1665 44.5866 43.2159 39.5109 43.2163 39.4696H26.4575ZM50.7368 56.9267C53.1008 55.1996 53.6377 51.4977 52.1314 48.9794C51.5928 48.079 51.1258 47.1309 50.7368 46.1435V56.9267ZM68.7847 27.1689C62.2286 27.169 56.9136 32.4839 56.9136 39.04C56.9137 45.5959 62.2287 50.9109 68.7847 50.9111C75.3407 50.9111 80.6556 45.596 80.6558 39.04C80.6558 32.4838 75.3408 27.1689 68.7847 27.1689ZM37.3774 23.0273C34.9665 21.7537 31.7874 21.2052 28.8989 21.6513C26.0379 22.0932 23.8867 23.418 22.7642 25.4452C21.937 26.9391 21.7573 28.0477 21.8374 29.0175C21.9116 29.915 22.0532 30.7674 22.8052 31.9491H42.6255C42.6254 28.5114 40.98 24.9305 37.3774 23.0273Z" fill="#5E85FE"/>
</svg>
