<svg width="40" height="40" viewBox="0 0 40 40" fill="none" xmlns="http://www.w3.org/2000/svg">
<path fill-rule="evenodd" clip-rule="evenodd" d="M12.0777 14.8658C11.0125 15.0304 10.2114 15.5233 9.79346 16.2782C9.48541 16.8345 9.41875 17.2474 9.44861 17.6085C9.47623 17.9427 9.52869 18.26 9.80869 18.7C10.2287 18.7 10.724 18.7 11.1687 18.7H17.1887C17.1887 17.42 16.5761 16.0865 15.2347 15.3779C14.337 14.9036 13.1533 14.6997 12.0777 14.8658ZM17.4087 21.5H11.1687C8.65966 21.5 6.71346 23.4918 6.9407 25.6107C7.15253 27.5859 8.7597 28.84 11.1687 28.84C13.2006 28.84 14.8711 28.1801 16.0471 27.5056C16.6335 27.1692 16.95 26.5686 17.1087 26.22C17.2674 25.8714 17.39 25.2747 17.39 24.74C17.39 23.4 17.4087 21.5 17.4087 21.5ZM14.1654 31.0714C15.5429 30.5393 17.4087 31.4032 17.4087 32.8799C17.4087 32.8799 17.4087 32.88 18.8087 32.88C20.2087 32.88 20.2087 31.0399 20.2087 31.0399V19.24C20.2087 17.105 19.2504 14.3326 16.5426 12.9021C15.1026 12.1414 13.3091 11.8425 11.6503 12.0986C9.98135 12.3564 8.29125 13.2109 7.34391 14.9218C6.80824 15.8892 6.57633 16.8496 6.65812 17.8392C6.71754 18.558 6.93749 19.225 7.23139 19.8508C5.23734 21.1083 3.8764 23.2959 4.15667 25.9093C4.564 29.7075 7.77116 31.64 11.1687 31.64C12.2541 31.64 13.258 31.4218 14.1654 31.0714Z" fill="#5E85FE"/>
<path fill-rule="evenodd" clip-rule="evenodd" d="M27.3088 28.5502C31.1197 28.3526 34.1488 25.2 34.1488 21.34C34.1488 19.6354 33.5581 18.0688 32.5702 16.8337H35.7488V14.12H26.9488C26.9421 14.12 26.9355 14.12 26.9288 14.12C22.9413 14.12 19.7088 17.3525 19.7088 21.34C19.7088 22.6562 20.061 23.8901 20.6763 24.9527C21.2531 25.9489 21.0336 27.409 20.098 28.0797C19.1331 28.7713 18.2716 29.6477 17.7955 30.6853C17.2939 31.7786 17.2403 33.0301 17.9066 34.2228C18.3749 35.0611 19.0522 35.6391 19.8822 35.9436C20.6749 36.2343 21.5095 36.2407 22.277 36.1345C23.7746 35.9273 25.4367 35.2218 26.8765 34.5891C27.0397 34.5174 27.2004 34.4465 27.3584 34.3767C28.6932 33.7876 29.843 33.2801 30.8016 33.0496C31.3276 32.9231 31.6529 32.9192 31.8333 32.9557C31.9509 32.9795 31.9842 33.0078 32.0325 33.0873C32.1606 33.2979 32.1511 33.4177 32.113 33.54C32.055 33.7258 31.8822 34.0098 31.4967 34.367C30.7226 35.0845 29.4816 35.7418 28.3437 36.2022L29.3939 38.7978C30.6478 38.2904 32.257 37.48 33.4 36.4206C33.9731 35.8895 34.5256 35.2077 34.7858 34.3743C35.0658 33.4773 34.9672 32.5244 34.4251 31.6327C33.9384 30.8322 33.2079 30.3771 32.3887 30.2113C31.6324 30.0583 30.8478 30.1586 30.1469 30.3272C28.9228 30.6216 27.5186 31.2433 26.2383 31.8101C26.0733 31.8831 25.9104 31.9553 25.7501 32.0257C24.2448 32.6871 22.9393 33.2162 21.8933 33.3609C21.3889 33.4307 21.0577 33.3923 20.8464 33.3148C20.6724 33.251 20.5074 33.1371 20.351 32.8572C20.1738 32.5399 20.1634 32.2389 20.3405 31.8529C20.5432 31.4111 20.9958 30.8812 21.7293 30.3553C23.198 29.3025 25.3812 28.56 27.3088 28.56V28.5502ZM26.9288 25.76C29.3699 25.76 31.3488 23.7811 31.3488 21.34C31.3488 18.8989 29.3699 16.92 26.9288 16.92C24.4877 16.92 22.5088 18.8989 22.5088 21.34C22.5088 23.7811 24.4877 25.76 26.9288 25.76Z" fill="#5E85FE"/>
<path d="M21.138 5.34465C20.9304 5.34465 20.7462 5.30747 20.5855 5.23312C20.4288 5.15486 20.3054 5.04921 20.2153 4.91616C20.1251 4.77921 20.0801 4.62268 20.0801 4.44659C20.0801 4.27833 20.1153 4.12768 20.1859 3.99463C20.2603 3.85767 20.374 3.74224 20.5268 3.64832C20.6835 3.55441 20.8794 3.48788 21.1145 3.44875L22.29 3.25506V3.71289L21.2379 3.88898C21.0342 3.92419 20.8853 3.98876 20.7913 4.08267C20.7011 4.17659 20.6561 4.29203 20.6561 4.42898C20.6561 4.55812 20.707 4.66573 20.8089 4.75181C20.9147 4.8379 21.0459 4.88095 21.2027 4.88095C21.4025 4.88095 21.5749 4.83986 21.7199 4.75768C21.8688 4.6716 21.9844 4.55616 22.0667 4.41137C22.1529 4.26659 22.196 4.10615 22.196 3.93006V3.12592C22.196 2.95375 22.1313 2.81483 22.002 2.70918C21.8766 2.59961 21.7101 2.54483 21.5024 2.54483C21.3222 2.54483 21.1615 2.59179 21.0205 2.6857C20.8833 2.7757 20.7815 2.89701 20.7148 3.04962L20.2388 2.80309C20.2975 2.65831 20.3916 2.52918 20.5209 2.4157C20.6502 2.2983 20.8011 2.20635 20.9735 2.13982C21.1459 2.0733 21.3261 2.04004 21.5142 2.04004C21.7571 2.04004 21.9707 2.087 22.1548 2.18091C22.339 2.27091 22.482 2.39809 22.5839 2.56244C22.6897 2.72287 22.7426 2.9107 22.7426 3.12592V5.27421H22.2077V4.67551L22.3077 4.71073C22.241 4.83595 22.1509 4.94551 22.0373 5.03943C21.9237 5.13334 21.7904 5.20769 21.6376 5.26247C21.4848 5.31726 21.3183 5.34465 21.138 5.34465Z" fill="#5E85FE"/>
<path d="M23.9427 5.27421V2.11047H24.4776V2.72679L24.3894 2.67396C24.4678 2.47439 24.5932 2.31983 24.7656 2.21026C24.9419 2.09678 25.1476 2.04004 25.3827 2.04004C25.61 2.04004 25.8118 2.09091 25.9881 2.19265C26.1684 2.29439 26.3094 2.43526 26.4113 2.61526C26.5171 2.79527 26.57 2.99875 26.57 3.22571V5.27421H26.0175V3.4018C26.0175 3.22571 25.9862 3.07701 25.9235 2.9557C25.8608 2.8344 25.7707 2.74048 25.6531 2.67396C25.5395 2.60352 25.4082 2.56831 25.2593 2.56831C25.1104 2.56831 24.9772 2.60352 24.8596 2.67396C24.746 2.74048 24.6559 2.83635 24.5893 2.96157C24.5227 3.08288 24.4894 3.22962 24.4894 3.4018V5.27421H23.9427Z" fill="#5E85FE"/>
<path d="M27.7048 5.27421V2.11047H28.2397V2.72679L28.1515 2.67396C28.2299 2.47439 28.3553 2.31983 28.5277 2.21026C28.704 2.09678 28.9097 2.04004 29.1448 2.04004C29.3721 2.04004 29.5739 2.09091 29.7502 2.19265C29.9304 2.29439 30.0715 2.43526 30.1734 2.61526C30.2792 2.79527 30.3321 2.99875 30.3321 3.22571V5.27421H29.7796V3.4018C29.7796 3.22571 29.7482 3.07701 29.6855 2.9557C29.6228 2.8344 29.5327 2.74048 29.4152 2.67396C29.3015 2.60352 29.1703 2.56831 29.0214 2.56831C28.8725 2.56831 28.7393 2.60352 28.6217 2.67396C28.5081 2.74048 28.4179 2.83635 28.3513 2.96157C28.2847 3.08288 28.2514 3.22962 28.2514 3.4018V5.27421H27.7048Z" fill="#5E85FE"/>
<path d="M32.3955 5.34465C32.1878 5.34465 32.0037 5.30747 31.843 5.23312C31.6863 5.15486 31.5629 5.04921 31.4727 4.91616C31.3826 4.77921 31.3376 4.62268 31.3376 4.44659C31.3376 4.27833 31.3728 4.12768 31.4434 3.99463C31.5178 3.85767 31.6314 3.74224 31.7843 3.64832C31.941 3.55441 32.1369 3.48788 32.372 3.44875L33.5475 3.25506V3.71289L32.4954 3.88898C32.2917 3.92419 32.1428 3.98876 32.0487 4.08267C31.9586 4.17659 31.9136 4.29203 31.9136 4.42898C31.9136 4.55812 31.9645 4.66573 32.0664 4.75181C32.1722 4.8379 32.3034 4.88095 32.4602 4.88095C32.66 4.88095 32.8324 4.83986 32.9774 4.75768C33.1263 4.6716 33.2419 4.55616 33.3242 4.41137C33.4104 4.26659 33.4535 4.10615 33.4535 3.93006V3.12592C33.4535 2.95375 33.3888 2.81483 33.2595 2.70918C33.1341 2.59961 32.9676 2.54483 32.7599 2.54483C32.5797 2.54483 32.419 2.59179 32.278 2.6857C32.1408 2.7757 32.0389 2.89701 31.9723 3.04962L31.4963 2.80309C31.555 2.65831 31.6491 2.52918 31.7784 2.4157C31.9077 2.2983 32.0585 2.20635 32.2309 2.13982C32.4034 2.0733 32.5836 2.04004 32.7717 2.04004C33.0146 2.04004 33.2282 2.087 33.4123 2.18091C33.5965 2.27091 33.7395 2.39809 33.8414 2.56244C33.9472 2.72287 34.0001 2.9107 34.0001 3.12592V5.27421H33.4652V4.67551L33.5651 4.71073C33.4985 4.83595 33.4084 4.94551 33.2948 5.03943C33.1811 5.13334 33.0479 5.20769 32.8951 5.26247C32.7423 5.31726 32.5758 5.34465 32.3955 5.34465Z" fill="#5E85FE"/>
<path d="M21.7199 12.16C21.4966 12.16 21.2889 12.1248 21.0969 12.0544C20.9088 11.9839 20.7462 11.8861 20.6091 11.7609C20.4758 11.6396 20.374 11.4968 20.3034 11.3324L20.8148 11.0976C20.8696 11.2463 20.9735 11.3715 21.1263 11.4733C21.283 11.5789 21.4789 11.6318 21.714 11.6318C21.8943 11.6318 22.0569 11.5966 22.2019 11.5261C22.3508 11.4596 22.4683 11.3579 22.5545 11.2209C22.6407 11.0878 22.6838 10.9255 22.6838 10.7337V10.0235L22.7837 10.1291C22.674 10.3444 22.5153 10.5087 22.3077 10.6222C22.1039 10.7357 21.8786 10.7924 21.6317 10.7924C21.3339 10.7924 21.0675 10.7239 20.8324 10.587C20.5973 10.4461 20.4131 10.2563 20.2799 10.0176C20.1467 9.77501 20.0801 9.50696 20.0801 9.21348C20.0801 8.91608 20.1467 8.64803 20.2799 8.40934C20.4131 8.17064 20.5953 7.98281 20.8265 7.84585C21.0616 7.70498 21.3281 7.63454 21.6259 7.63454C21.8727 7.63454 22.0961 7.69128 22.2959 7.80476C22.4997 7.91433 22.6623 8.06694 22.7837 8.26259L22.7014 8.40934V7.70498H23.2363V10.7337C23.2363 11.0076 23.1716 11.2522 23.0423 11.4674C22.913 11.6826 22.7328 11.8509 22.5016 11.9722C22.2743 12.0974 22.0138 12.16 21.7199 12.16ZM21.6788 10.2641C21.8668 10.2641 22.0353 10.2172 22.1842 10.1233C22.337 10.0294 22.4585 9.90414 22.5486 9.74761C22.6388 9.58718 22.6838 9.40913 22.6838 9.21348C22.6838 9.02173 22.6388 8.84565 22.5486 8.68521C22.4585 8.52477 22.337 8.3976 22.1842 8.30368C22.0353 8.20977 21.8668 8.16281 21.6788 8.16281C21.4868 8.16281 21.3124 8.20977 21.1557 8.30368C20.9989 8.3976 20.8755 8.52477 20.7854 8.68521C20.6992 8.84173 20.6561 9.01782 20.6561 9.21348C20.6561 9.40913 20.6992 9.58718 20.7854 9.74761C20.8755 9.90414 20.997 10.0294 21.1498 10.1233C21.3065 10.2172 21.4828 10.2641 21.6788 10.2641Z" fill="#5E85FE"/>
<path d="M25.0524 10.9392C24.8447 10.9392 24.6605 10.902 24.4999 10.8276C24.3431 10.7494 24.2197 10.6437 24.1296 10.5107C24.0395 10.3737 23.9944 10.2172 23.9944 10.0411C23.9944 9.87283 24.0297 9.72218 24.1002 9.58913C24.1747 9.45218 24.2883 9.33674 24.4411 9.24283C24.5978 9.14891 24.7938 9.08239 25.0289 9.04326L26.2044 8.84956V9.30739L25.1523 9.48348C24.9485 9.5187 24.7996 9.58326 24.7056 9.67718C24.6155 9.77109 24.5704 9.88653 24.5704 10.0235C24.5704 10.1526 24.6213 10.2602 24.7232 10.3463C24.829 10.4324 24.9603 10.4754 25.117 10.4754C25.3168 10.4754 25.4893 10.4344 25.6342 10.3522C25.7831 10.2661 25.8987 10.1507 25.981 10.0059C26.0672 9.86109 26.1103 9.70066 26.1103 9.52457V8.72043C26.1103 8.54825 26.0457 8.40934 25.9164 8.30368C25.791 8.19411 25.6244 8.13933 25.4168 8.13933C25.2365 8.13933 25.0759 8.18629 24.9348 8.2802C24.7977 8.3702 24.6958 8.49151 24.6292 8.64412L24.1531 8.3976C24.2119 8.25281 24.3059 8.12368 24.4352 8.0102C24.5645 7.89281 24.7154 7.80085 24.8878 7.73433C25.0602 7.6678 25.2404 7.63454 25.4285 7.63454C25.6715 7.63454 25.885 7.6815 26.0692 7.77541C26.2533 7.86542 26.3964 7.99259 26.4982 8.15694C26.604 8.31738 26.6569 8.50521 26.6569 8.72043V10.8687H26.1221V10.27L26.222 10.3052C26.1554 10.4304 26.0653 10.54 25.9516 10.6339C25.838 10.7278 25.7048 10.8022 25.5519 10.857C25.3991 10.9118 25.2326 10.9392 25.0524 10.9392Z" fill="#5E85FE"/>
<path d="M28.627 10.9392C28.3998 10.9392 28.1941 10.8863 28.0099 10.7807C27.8297 10.675 27.6886 10.5283 27.5867 10.3404C27.4888 10.1487 27.4398 9.92957 27.4398 9.68305V7.70498H27.9864V9.62435C27.9864 9.78088 28.0177 9.91783 28.0804 10.0352C28.147 10.1526 28.2372 10.2446 28.3508 10.3111C28.4683 10.3776 28.6016 10.4109 28.7505 10.4109C28.8994 10.4109 29.0306 10.3776 29.1443 10.3111C29.2618 10.2446 29.3519 10.1487 29.4146 10.0235C29.4812 9.89827 29.5145 9.74957 29.5145 9.57739V7.70498H30.067V10.8687H29.5322V10.2524L29.6203 10.3052C29.5459 10.5048 29.4185 10.6613 29.2383 10.7748C29.062 10.8844 28.8582 10.9392 28.627 10.9392Z" fill="#5E85FE"/>
<path d="M32.3538 10.9392C32.056 10.9392 31.7876 10.8668 31.5486 10.722C31.3135 10.5772 31.1274 10.3796 30.9902 10.1291C30.8531 9.8787 30.7845 9.59892 30.7845 9.28978C30.7845 8.97282 30.8531 8.69108 30.9902 8.44455C31.1274 8.19412 31.3135 7.9965 31.5486 7.85172C31.7876 7.70693 32.056 7.63454 32.3538 7.63454C32.6164 7.63454 32.8495 7.69128 33.0533 7.80476C33.257 7.91433 33.4177 8.06303 33.5352 8.25085L33.447 8.38586V6.4254H33.9995V10.8687H33.4647V10.1937L33.5352 10.2876C33.4255 10.495 33.2648 10.6555 33.0533 10.7689C32.8456 10.8824 32.6124 10.9392 32.3538 10.9392ZM32.4009 10.4109C32.6007 10.4109 32.779 10.362 32.9357 10.2641C33.0924 10.1663 33.2159 10.0333 33.306 9.86501C33.4 9.69283 33.447 9.50109 33.447 9.28978C33.447 9.07456 33.4 8.88282 33.306 8.71456C33.2159 8.54238 33.0924 8.40738 32.9357 8.30955C32.779 8.21172 32.6007 8.16281 32.4009 8.16281C32.2049 8.16281 32.0266 8.21368 31.866 8.31542C31.7093 8.41325 31.5858 8.54629 31.4957 8.71456C31.4056 8.87891 31.3605 9.07065 31.3605 9.28978C31.3605 9.50109 31.4056 9.69283 31.4957 9.86501C31.5858 10.0333 31.7093 10.1663 31.866 10.2641C32.0227 10.362 32.201 10.4109 32.4009 10.4109Z" fill="#5E85FE"/>
<path d="M12.6599 2H11.6599V4.79289L9.68504 2.81802L8.97793 3.52513L10.9528 5.5H8.15991V6.5H10.9528L8.97793 8.47487L9.68504 9.18198L11.6599 7.20711V10H12.6599V7.20711L14.6348 9.18198L15.3419 8.47487L13.367 6.5H16.1599V5.5H13.367L15.3419 3.52513L14.6348 2.81802L12.6599 4.79289V2Z" fill="#5E85FE"/>
</svg>
